<!DOCTYPE svg PUBLIC "-//W3C//DTD SVG 1.1//EN" "http://www.w3.org/Graphics/SVG/1.1/DTD/svg11.dtd">
<!-- Uploaded to: SVG Repo, www.svgrepo.com, Transformed by: SVG Repo Mixer Tools -->
<svg fill="#b1b946" width="800px" height="800px" viewBox="0 0 512 512" xmlns="http://www.w3.org/2000/svg" stroke="#b1b946">
<g id="SVGRepo_bgCarrier" stroke-width="0"/>
<g id="SVGRepo_tracerCarrier" stroke-linecap="round" stroke-linejoin="round"/>
<g id="SVGRepo_iconCarrier">
<path d="M496 192h-48v-48c0-8.8-7.2-16-16-16h-48V80c0-8.8-7.2-16-16-16H144c-8.8 0-16 7.2-16 16v48H80c-8.8 0-16 7.2-16 16v48H16c-8.8 0-16 7.2-16 16v224c0 8.8 7.2 16 16 16h80V320h32v128h64V320h32v128h64V320h32v128h64V320h32v128h80c8.8 0 16-7.2 16-16V208c0-8.8-7.2-16-16-16z"/>
</g>
</svg>
